<svg width="111" height="26" viewBox="0 0 111 26" fill="none" xmlns="http://www.w3.org/2000/svg">
<g clip-path="url(#clip0)">
<path fill-rule="evenodd" clip-rule="evenodd" d="M38.1147 21.6439C33.6226 21.2356 33.7587 17.2879 33.7587 17.2879L45.6016 14.2932C45.4655 13.2042 45.4655 10.2094 43.5598 7.75913C42.0624 5.85337 39.6121 5.03661 37.0257 5.17274C34.4393 5.30886 32.5336 5.98949 30.9001 7.75913C29.4027 9.66488 28.5859 11.979 28.5859 15.5183C28.5859 21.6439 32.2613 26 37.8425 26C40.565 26 42.1985 25.3193 44.921 23.822L43.2875 20.1466C41.5179 21.0994 39.8844 21.7801 38.1147 21.6439ZM33.4865 13.4764L40.565 11.7068C40.565 11.7068 40.1566 8.57588 36.3451 9.39263C33.2142 10.2094 33.4865 13.4764 33.4865 13.4764Z" fill="#455560"/>
<path d="M96.6484 26.0003C101.685 26.0003 104.952 23.2778 104.952 19.194C104.952 17.9689 104.544 16.7437 103.863 15.927C103.182 15.1102 102.366 14.2935 100.052 13.749L97.7374 13.2045C95.9678 12.66 95.2872 12.1155 95.2872 11.1626C95.2872 10.0736 96.24 9.25683 97.7374 9.25683C99.2348 9.25683 100.596 9.66521 102.502 10.6181L104.135 7.21495C102.366 6.39819 100.324 5.44531 97.1929 5.44531C92.7008 5.44531 89.706 8.0317 89.706 11.8432C89.706 13.0683 90.1144 14.5657 90.795 15.3825C91.4756 16.1992 93.1092 17.1521 94.3343 17.4244L96.6484 17.8327C98.6903 18.2411 99.6432 18.9218 99.6432 20.283C99.6432 21.5081 98.5542 22.461 97.0568 22.461C94.8788 22.461 91.884 22.461 90.1144 22.461C88.3447 22.461 86.0306 21.372 86.0306 18.3772C86.0306 15.5186 86.0306 10.482 86.0306 10.482L81.4023 11.2987C81.4023 11.2987 81.4023 17.1521 81.4023 19.0579C81.4023 20.9636 82.6275 26.2725 88.0725 26.2725C93.3814 26.0003 96.6484 26.0003 96.6484 26.0003Z" fill="#455560"/>
<path d="M17.6963 12.1154V25.0473H22.7329V11.4347C23.6858 10.3457 24.7748 9.80123 25.8638 9.80123C26.4083 9.80123 26.8167 9.93735 27.3612 10.2096L28.7224 5.71746C27.9057 5.30908 27.6334 5.30908 26.8167 5.30908C26.2722 5.30908 25.5915 5.44521 25.1832 5.58133C24.2303 5.98971 23.0052 7.07872 22.3245 8.0316C22.1884 6.94259 21.9162 5.98971 21.5078 5.30908L17.0156 6.53421C17.424 7.48709 17.6963 9.52898 17.6963 12.1154Z" fill="#455560"/>
<path d="M55.4033 5.30908C50.9111 5.30908 47.9164 7.89547 47.9164 11.707C47.9164 12.9321 48.3247 14.4295 49.0054 15.2463C49.686 16.063 51.3195 17.0159 52.5446 17.2881L54.8588 17.6965C56.9007 18.1049 57.8535 18.7855 57.8535 20.1468C57.8535 21.3719 56.7645 22.3248 55.2672 22.3248C53.0891 22.3248 50.3666 21.0997 48.8692 20.1468L47.0996 23.8222C49.9582 25.3196 52.5446 26.0002 54.9949 26.0002C60.0316 26.0002 63.2986 23.2777 63.2986 19.1939C63.2986 17.9688 62.8902 16.7436 62.2096 15.9269C61.5289 15.1101 60.7122 14.2934 58.398 13.7489L56.0839 13.2044C54.3143 12.796 53.6336 12.2515 53.6336 11.1625C53.6336 10.0735 54.5865 9.25673 56.0839 9.25673C57.5813 9.25673 58.9425 9.6651 60.8483 10.618L62.4818 7.21484C60.5761 6.26196 58.5342 5.30908 55.4033 5.30908Z" fill="#455560"/>
<path d="M71.874 5.30908C67.3818 5.30908 64.3871 7.89547 64.3871 11.707C64.3871 12.9321 64.7954 14.4295 65.4761 15.2463C66.1567 16.063 67.7902 17.0159 69.0153 17.2881L71.3295 17.6965C73.3714 18.1049 74.3242 18.7855 74.3242 20.1468C74.3242 21.3719 73.2352 22.3248 71.7379 22.3248C69.5598 22.3248 66.8373 21.0997 65.3399 20.1468L63.5703 23.8222C66.429 25.3196 69.0153 26.0002 71.4656 26.0002C76.5023 26.0002 79.7693 23.2777 79.7693 19.1939C79.7693 17.9688 79.3609 16.7436 78.6803 15.9269C77.9996 15.1101 77.1829 14.2934 74.8687 13.7489L72.5546 13.2044C70.785 12.796 70.1043 12.2515 70.1043 11.1625C70.1043 10.0735 71.0572 9.25673 72.5546 9.25673C74.052 9.25673 75.4132 9.6651 77.319 10.618L78.9525 7.21484C77.0468 6.26196 75.0049 5.30908 71.874 5.30908Z" fill="#455560"/>
<path d="M107.54 14.1571C109.037 14.1571 110.126 12.932 110.126 11.5708C110.126 10.0734 108.901 8.98438 107.54 8.98438C106.042 8.98438 104.953 10.0734 104.953 11.5708C104.953 12.932 106.178 14.1571 107.54 14.1571Z" fill="#C41130"/>
<path d="M5.03665 5.8533H0.408377L0 9.80094H4.90052C4.7644 14.7015 4.7644 20.0104 4.7644 20.0104C4.7644 21.78 4.7644 22.1884 5.17277 23.0051C5.71728 24.7748 7.89529 25.8638 10.4817 25.8638C11.8429 25.8638 13.2042 25.5915 14.5654 25.047L13.8848 22.0523C12.9319 22.3245 12.5236 22.4606 12.1152 22.4606C10.3455 22.4606 9.93717 21.78 9.93717 19.3297V9.66482H14.4293L14.8377 5.71717H9.80105C9.80105 3.67529 9.93717 1.6334 10.0733 -0.13623L5.03665 1.22503C5.03665 1.22503 5.03665 3.13079 5.03665 5.8533Z" fill="#455560"/>
</g>
<defs>
<clipPath id="clip0">
<rect width="110.262" height="26" fill="white"/>
</clipPath>
</defs>
</svg>
